<svg width="642" height="184" viewBox="0 0 642 184" fill="none" xmlns="http://www.w3.org/2000/svg">
<path d="M44.4956 117.762L44.4956 117.762C37.7321 111.616 34 103.098 34 93.7274C34 84.1669 37.4813 76.0265 44.0113 70.0675L44.0119 70.0669C48.6986 65.7864 54.9981 62.701 62.1217 61.2149C63.1163 61.0087 64.0475 60.5689 64.8387 59.9318C65.6302 59.2944 66.2588 58.4778 66.6726 57.5496L66.6738 57.5468C69.1938 51.8705 72.968 46.8404 77.712 42.8353C84.6219 37.0653 93.1795 34.0004 102.5 34.0004L102.509 34.0004C112.985 33.9548 123.068 37.9944 130.618 45.2631C137.11 51.5172 141.549 59.8154 143.591 69.5808C143.838 70.7847 144.427 71.8921 145.286 72.771C146.146 73.6513 147.242 74.265 148.442 74.5386L148.452 74.5409C160.414 77.2021 171 85.7139 171 100.341C171 109.022 167.842 115.957 162.002 120.61C156.828 124.729 149.629 127 141.055 127H69.4531C59.8757 127 51.0253 123.696 44.4956 117.762Z" stroke="#772A18" stroke-width="4"/>
<path d="M287.503 127.431V129.431H289.503H304.211H306.211V127.431V61.4828V59.4828H304.211H289.503H287.503V61.4828V127.431ZM398.967 57.931C389.426 57.931 381.81 62.2792 376.658 70.2626C372.649 62.5566 364.982 57.931 355.36 57.931C347.386 57.931 340.884 61.2807 336.072 67.4202V61.4828V59.4828H334.072H319.364H317.364V61.4828V127.431V129.431H319.364H334.072H336.072V127.431V89.6724C336.072 87.1392 337.231 85.0027 339.391 83.4356C341.595 81.8365 344.893 80.8103 349.038 80.8103C352.913 80.8103 355.934 81.7978 357.936 83.3258C359.894 84.8203 360.972 86.892 360.972 89.4138V127.431V129.431H362.972H377.68H379.68V127.431V89.6724C379.68 87.1392 380.839 85.0027 382.999 83.4356C385.203 81.8365 388.5 80.8103 392.646 80.8103C396.45 80.8103 399.477 81.7951 401.5 83.3296C403.483 84.8328 404.579 86.9077 404.579 89.4138V127.431V129.431H406.579H421.287H423.287V127.431V83.7241C423.287 76.1336 420.928 69.6645 416.617 65.0756C412.295 60.4753 406.165 57.931 398.967 57.931ZM451.86 152V120.7C457.167 127.074 464.778 130.983 473.857 130.983C493.313 130.983 507.595 115.049 507.595 94.4569C507.595 73.8643 493.313 57.931 473.857 57.931C464.778 57.931 457.167 61.84 451.86 68.2133V61.4828V59.4828H449.86H435.152H433.152V61.4828V152V154H435.152H449.86H451.86V152ZM514.921 127.431V129.431H516.921H531.629H533.629V127.431V34.3276V32.3276H531.629H516.921H514.921V34.3276V127.431ZM611.649 62.6154L613.801 59.4828H610H591.293H590.265L589.667 60.3183L575.17 80.5603H575.027L560.402 60.3117L559.803 59.4828H558.78H541.492H537.702L539.841 62.6116L561.257 93.9348L538.942 126.296L536.78 129.431H540.589H559.167H560.189L560.787 128.604L575.542 108.224H575.832L590.843 128.617L591.443 129.431H592.454H609.613H613.411L611.262 126.299L589.59 94.7163L611.649 62.6154ZM296.857 54.819C304.539 54.819 310.856 49.6418 310.856 42.3448C310.856 35.1621 304.521 30 296.857 30C289.307 30 282.988 35.1752 282.988 42.3448C282.988 49.6287 289.29 54.819 296.857 54.819ZM470.115 108.103C459.102 108.103 451.86 101.829 451.86 94.4569C451.86 87.0853 459.102 80.8103 470.115 80.8103C481.129 80.8103 488.371 87.0853 488.371 94.4569C488.371 101.829 481.129 108.103 470.115 108.103Z" stroke="#772A18" stroke-width="4"/>
<path d="M246.581 71.4013L246.573 71.4L246.564 71.3988C242.901 70.8835 237.248 69.9652 232.544 68.4094C230.181 67.6276 228.197 66.7291 226.843 65.7316C225.474 64.7241 225.062 63.8644 225.062 63.1638C225.062 61.9901 226.004 60.4946 228.952 59.1898C231.796 57.9311 235.949 57.1465 240.867 57.1465C246.338 57.1465 250.894 58.1166 254.003 59.6021C257.21 61.134 258.348 62.9097 258.348 64.3276V66.3276H260.348H276.734H278.734V64.3276C278.734 47.1606 262.404 34.6552 241.383 34.6552C221.186 34.6552 204.548 46.087 204.548 64.1983C204.548 72.8967 208.433 79.5603 214.436 84.3069C220.374 89.0034 228.351 91.8102 236.691 93.0714C242.465 93.9818 248.511 94.9937 253.107 96.5601C255.41 97.345 257.187 98.2177 258.356 99.172C259.488 100.097 259.897 100.96 259.897 101.828C259.897 103.169 258.768 104.834 255.498 106.267C252.356 107.644 247.842 108.491 242.673 108.491C236.762 108.491 231.76 107.396 228.314 105.705C224.776 103.97 223.385 101.907 223.385 100.147V98.1465H221.385H205H203V100.147C203 118.104 220.122 130.983 242.028 130.983C262.86 130.983 280.411 119.171 280.411 100.147C280.411 91.1607 276.336 84.5436 270.013 79.9124C263.775 75.3437 255.384 72.7182 246.581 71.4013Z" stroke="#772A18" stroke-width="4"/>
</svg>
